# xmcd
#
# Track frame offsets:
#	150
#	12790
#	22225
#	46060
#	75312
#	94062
#	109200
#	125347
#	138152
#	152092
#	166982
#	188205
#	206782
#	221007
#	236727
#	251645
#	279882
#
# Disc length: 4088 seconds
#
# Revision: 0
# Processed by: cddbd v1.5.1PL0 Copyright (c) Steve Scherf et al.
# Submitted via: EasyCDDAExtractor 7.5.2.1
#
DISCID=e30ff611
DTITLE=James Browm - ESTA VIVO
DYEAR=1979
DGENRE=Blues
TTITLE0=I GOT YOU
TTITLE1=PARA´S GOT A BRAND NEW BAG
TTITLE2=SEX MACHIN
TTITLE3=GIVE IT UP OR TURN IT A LOOSE
TTITLE4=GET UP OFF A THAT THING
TTITLE5=THINK (ABOUT IT)
TTITLE6=GET ON THE GOOD FOOT
TTITLE7=COLD SWEET
TTITLE8=HOT PANTS
TTITLE9=MOTHER POPCORN
TTITLE10=I KNOW YOU GOT SOUL
TTITLE11=SOUL POWER´74
TTITLE12=PASS THE PEAS
TTITLE13=NIGHT TRAIN
TTITLE14=KING HEROIN
TTITLE15=GOLIATH
TTITLE16=LIVING IN AMERICA
EXTD=
EXTT0=
EXTT1=
EXTT2=
EXTT3=
EXTT4=
EXTT5=
EXTT6=
EXTT7=
EXTT8=
EXTT9=
EXTT10=
EXTT11=
EXTT12=
EXTT13=
EXTT14=
EXTT15=
EXTT16=
PLAYORDER=
